<svg width="24" height="24" viewBox="0 0 24 24" fill="none" xmlns="http://www.w3.org/2000/svg">
<g clip-path="url(#clip0_432_1314)">
<path d="M19.0706 19.0711C22.9759 15.1659 22.9759 8.83421 19.0706 4.92896C15.1654 1.02372 8.83373 1.02372 4.92849 4.92896C1.02325 8.83421 1.02325 15.1659 4.92849 19.0711C8.83373 22.9763 15.1654 22.9763 19.0706 19.0711Z" fill="#E2E8F0"/>
<path fill-rule="evenodd" clip-rule="evenodd" d="M9.73741 8.6059C9.42499 8.29348 8.91846 8.29348 8.60604 8.6059C8.29362 8.91832 8.29362 9.42486 8.60604 9.73727L10.8688 12L8.60604 14.2628C8.29362 14.5752 8.29362 15.0817 8.60604 15.3942C8.91846 15.7066 9.42499 15.7066 9.73741 15.3942L12.0002 13.1314L14.2629 15.3941C14.5753 15.7065 15.0818 15.7065 15.3943 15.3941C15.7067 15.0817 15.7067 14.5752 15.3943 14.2628L13.1315 12L15.3943 9.7373C15.7067 9.42488 15.7067 8.91835 15.3943 8.60593C15.0818 8.29351 14.5753 8.29351 14.2629 8.60593L12.0002 10.8687L9.73741 8.6059Z" fill="#64748B"/>
</g>
<defs>
<clipPath id="clip0_432_1314">
<rect width="24" height="24" fill="white"/>
</clipPath>
</defs>
</svg>
